<?xml version="1.0" encoding="utf-8"?>
<svg width="52" height="52" viewBox="0 0 52 52" fill="none" xmlns="http://www.w3.org/2000/svg">
  <g id="SingleElement">
    <path d="M39.611 16.083L38 16.083L38 16L20 16L20 24C20 24 31.303 24 31.303 24C29.654 28.657 25.223 32 20 32C13.373 32 8 26.627 8 20C8 13.373 13.373 8 20 8C23.059 8 25.842 9.154 27.961 11.039C27.961 11.039 33.618 5.382 33.618 5.382C30.046 2.053 25.268 0 20 0C8.955 0 0 8.955 0 20C0 31.045 8.955 40 20 40C31.045 40 40 31.045 40 20C40 18.659 39.862 17.35 39.611 16.083C39.611 16.083 39.611 16.083 39.611 16.083Z" fill="#FFC107" transform="translate(4 4)" />
    <path d="M0 10.691C0 10.691 6.571 15.51 6.571 15.51C8.349 11.108 12.655 8 17.694 8C20.753 8 23.536 9.154 25.655 11.039C25.655 11.039 31.312 5.382 31.312 5.382C27.74 2.053 22.962 0 17.694 0C10.012 0 3.35 4.337 0 10.691C0 10.691 0 10.691 0 10.691Z" fill="#FF3D00" transform="translate(6.306 4)" />
    <path d="M17.805 15.946C22.971 15.946 27.665 13.969 31.214 10.754C31.214 10.754 25.024 5.516 25.024 5.516C23.016 7.037 20.52 7.946 17.805 7.946C12.603 7.946 8.186 4.629 6.522 0C6.522 0 2.38419e-06 5.025 2.38419e-06 5.025C3.31 11.502 10.032 15.946 17.805 15.946C17.805 15.946 17.805 15.946 17.805 15.946Z" fill="#4CAF50" transform="translate(6.195 28.054)" />
    <path d="M19.611 0.0830002L18 0.0830002L18 0L0 0L0 8C0 8 11.303 8 11.303 8C10.511 10.237 9.072 12.166 7.216 13.571C7.217 13.57 7.218 13.57 7.219 13.569C7.219 13.569 13.409 18.807 13.409 18.807C12.971 19.205 20 14 20 4C20 2.659 19.862 1.35 19.611 0.0830002C19.611 0.0830002 19.611 0.0830002 19.611 0.0830002Z" fill="#1976D2" transform="translate(24 20)" />
  </g>
</svg>